<svg xmlns="http://www.w3.org/2000/svg" width="94" height="94" viewBox="0 0 94 94">
    <g data-name="Rectangle 70170" style="fill:#fff;stroke:none;stroke-width:.5px">
        <rect width="94" height="94" rx="14" style="stroke:none"/>
        <rect x=".25" y=".25" width="93.5" height="93.5" rx="13.75" style="fill:none"/>
    </g>
    <g data-name="AC Service">
        <path data-name="Rectangle 91" d="M0 0h57.151v57.151H0z" transform="translate(19.252 17.847)" style="fill:none"/>
        <g data-name="Group 13588" transform="translate(29.458 22.694)">
            <rect data-name="Rectangle 6653" width="23.155" height="9.445" rx="1.59" transform="translate(2.064 36.306)" style="fill:#65efb0"/>
            <rect data-name="Rectangle 6654" width="23.155" height="4.722" rx="1.59" transform="translate(2.064 1.778)" style="fill:#65efb0"/>
            <path data-name="Path 4975" d="M128.631 444.927v-4.5a6.1 6.1 0 0 0-6.1-6.076H107.4a6.069 6.069 0 0 0-6.05 6.076v35.3a6.069 6.069 0 0 0 6.05 6.077h15.13a6.1 6.1 0 0 0 6.1-6.075v-7.862h-2.064v1.786h-23.153V442.3h23.154v2.627zm-25.215-4.691a4 4 0 0 1 3.983-3.821h15.13a4.051 4.051 0 0 1 4.033 3.821zm0 35.5v-4.012h23.154v4.009a4.049 4.049 0 0 1-4.038 4.014H107.4a4 4 0 0 1-3.987-4.014z" transform="translate(-101.349 -434.351)" style="fill:#333a60"/>
            <path data-name="Path 4976" d="M119.813 484.6h-4.665a1.032 1.032 0 1 0 0 2.064h4.665a1.032 1.032 0 0 0 0-2.064z" transform="translate(-103.864 -444.252)" style="fill:#333a60"/>
            <path data-name="Path 4977" d="m141.392 450.469-9.45-4.639a1.032 1.032 0 0 0-.9 0l-9.465 4.625a1.041 1.041 0 0 0-.594.929v8.853a8.1 8.1 0 0 0 .825 3.335 8.692 8.692 0 0 0 2.8 3.473l6.3 4.295a1.024 1.024 0 0 0 1.162 0l6.291-4.295a9.081 9.081 0 0 0 3.591-6.809V451.4a1.029 1.029 0 0 0-.56-.931zm-1.5 1.57v8.2a7.126 7.126 0 0 1-2.688 5.1l-5.717 3.9-5.72-3.9a6.6 6.6 0 0 1-2.093-2.636 6.13 6.13 0 0 1-.631-2.467v-8.208l8.425-4.122z" transform="translate(-105.216 -436.592)" style="fill:#333a60"/>
            <path data-name="Path 4978" d="M140.4 452.574v8.2a7.126 7.126 0 0 1-2.688 5.1l-5.717 3.9-5.72-3.9a6.6 6.6 0 0 1-2.092-2.636 6.13 6.13 0 0 1-.631-2.467v-8.208l8.425-4.122z" transform="translate(-105.723 -437.127)" style="fill:#ffc100"/>
            <path data-name="Path 4979" d="M135.761 458.317h-.8a2.787 2.787 0 0 0-.3-.729h1.1a.691.691 0 0 0 0-1.381h-4.925a.691.691 0 0 0 0 1.381h1.406a1.462 1.462 0 0 1 1.24.729h-2.646a.691.691 0 0 0 0 1.382h2.664a1.374 1.374 0 0 1-1.252.728h-1.414a.7.7 0 0 0-.47 1.2l3.521 3.328a.682.682 0 0 0 .475.19h.018a.69.69 0 0 0 .485-.217.7.7 0 0 0-.029-.982l-2.279-2.159a2.8 2.8 0 0 0 2.408-2.092h.8a.691.691 0 1 0 0-1.382z" transform="translate(-107.023 -438.657)" style="fill:#333a60"/>
        </g>
    </g>
</svg>
